<svg version="1.1" id="Layer_1" xmlns="http://www.w3.org/2000/svg" xmlns:xlink="http://www.w3.org/1999/xlink" x="0px" y="0px"
	 width="100%" viewBox="0 0 886 854" enable-background="new 0 0 886 854" xml:space="preserve">
<path fill="#FFC120" opacity="1.000000" stroke="none" 
	d="
M1.000006,764.000000 
	C1.000000,509.710815 1.000000,255.421616 1.000000,1.066216 
	C296.237915,1.066216 591.475891,1.066216 887.000000,1.066216 
	C887.000000,250.027969 887.000000,499.056030 886.731201,748.343750 
	C869.056091,727.568359 852.074524,706.163452 834.153076,685.576782 
	C799.237061,645.467957 765.452454,604.555603 735.390137,560.577698 
	C689.308899,493.165924 665.188843,419.053497 664.662964,337.315796 
	C664.488220,310.159424 663.997131,283.005219 663.748718,255.849121 
	C663.508728,229.613190 661.353577,203.593887 654.930481,178.079010 
	C636.422302,104.557724 591.260132,56.329105 517.871826,36.204159 
	C463.763550,21.366285 409.083374,21.284197 354.858276,35.852489 
	C294.118622,52.171013 251.402145,89.625046 227.449188,148.053024 
	C217.449158,172.445847 212.289948,198.018967 208.542999,224.144958 
	C207.471085,228.258163 206.337158,232.231003 206.131882,236.251251 
	C205.284805,252.840866 204.511185,269.439606 204.092239,286.044617 
	C203.127090,324.298767 205.979034,362.623749 202.029602,400.823273 
	C200.513412,415.487946 198.992218,430.155090 197.186783,444.785797 
	C196.092972,453.649719 194.450073,462.445862 193.104263,471.436340 
	C193.154678,471.600189 193.315430,471.903076 193.221832,471.911102 
	C193.128220,471.919128 192.943100,471.951477 192.597015,472.047974 
	C191.672867,473.103546 190.890305,473.995117 190.548035,475.032013 
	C186.820480,486.324615 183.756973,497.879486 179.326538,508.885498 
	C174.337479,521.279297 168.072052,533.156006 162.518433,545.329102 
	C161.591507,547.360840 161.461624,549.756165 160.979340,551.984985 
	C160.995255,551.986450 160.972351,551.962769 160.621063,552.018921 
	C156.616547,557.892700 152.820343,563.627258 149.369659,569.562683 
	C147.609497,572.590454 146.469574,575.978699 144.973236,579.534302 
	C122.228287,616.093384 95.499763,649.216064 67.671898,681.546143 
	C49.769608,702.344849 32.417873,723.621033 15.010088,744.839661 
	C9.999543,750.947083 5.651697,757.598145 1.000006,764.000000 
z"/>
<path fill="#212223" opacity="1.000000" stroke="none" 
	d="
M1.000006,764.468628 
	C5.651697,757.598145 9.999543,750.947083 15.010088,744.839661 
	C32.417873,723.621033 49.769608,702.344849 67.671898,681.546143 
	C95.499763,649.216064 122.228287,616.093384 145.259308,579.338989 
	C150.738434,569.863098 155.855392,560.912964 160.972351,551.962769 
	C160.972351,551.962769 160.995255,551.986450 161.232040,551.753113 
	C166.881470,540.281555 173.022980,529.326416 177.525101,517.734558 
	C183.348984,502.739410 187.864334,487.236023 192.943100,471.951477 
	C192.943100,471.951477 193.128220,471.919128 193.548126,471.836823 
	C194.912857,469.490509 196.215912,467.307343 196.747849,464.950165 
	C202.968048,437.386322 205.902084,409.392731 206.898438,381.210571 
	C207.608902,361.114868 207.699966,340.995911 207.950546,320.885864 
	C208.087418,309.900665 207.876404,298.911163 208.007706,287.925812 
	C208.240082,268.483734 208.613968,249.043304 208.867111,229.206696 
	C208.839737,227.216263 208.873871,225.621323 208.907990,224.026367 
	C212.289948,198.018967 217.449158,172.445847 227.449188,148.053024 
	C251.402145,89.625046 294.118622,52.171013 354.858276,35.852489 
	C409.083374,21.284197 463.763550,21.366285 517.871826,36.204159 
	C591.260132,56.329105 636.422302,104.557724 654.930481,178.079010 
	C661.353577,203.593887 663.508728,229.613190 663.748718,255.849121 
	C663.997131,283.005219 664.488220,310.159424 664.662964,337.315796 
	C665.188843,419.053497 689.308899,493.165924 735.390137,560.577698 
	C765.452454,604.555603 799.237061,645.467957 834.153076,685.576782 
	C852.074524,706.163452 869.056091,727.568359 886.731201,748.801758 
	C887.000000,784.263245 887.000000,819.526550 887.000000,855.000000 
	C848.979370,855.000000 810.958313,855.000000 772.141541,854.654480 
	C771.867920,851.906433 772.611511,849.528198 772.878906,847.097656 
	C776.776428,811.670471 775.052185,776.458252 766.771851,741.836670 
	C741.789612,637.382080 680.611877,561.656738 584.506775,513.955383 
	C581.942383,512.682556 580.164307,512.811096 577.795105,514.538208 
	C567.570435,521.991882 557.310852,529.416260 546.792419,536.444885 
	C520.336304,554.123291 493.290436,570.732178 463.825562,583.155823 
	C449.672272,589.123413 435.870880,589.871521 421.721954,583.870789 
	C418.965851,582.701904 416.120605,581.742126 413.371124,580.558899 
	C374.764832,563.944946 339.643799,541.394897 305.610657,517.033081 
	C302.632935,514.901611 300.461548,514.636047 297.186218,516.338928 
	C197.557465,568.138672 136.870651,648.958008 116.438583,759.485474 
	C110.588776,791.130188 110.223038,823.082458 115.000000,855.000000 
	C77.081261,855.000000 39.162518,855.000000 1.000000,855.000000 
	C1.000000,824.979553 1.000000,794.958435 1.000006,764.468628 
M604.443604,228.082306 
	C589.355408,199.487122 566.100769,181.093399 534.300903,175.485321 
	C494.229889,168.418564 461.512665,182.471207 436.013214,214.033539 
	C434.894653,212.693878 434.064178,211.667709 433.200867,210.669891 
	C411.086792,185.109390 383.155457,172.662384 349.468689,176.017883 
	C310.624786,179.887085 282.740570,200.553024 268.325470,236.686920 
	C253.816284,273.056671 260.600372,306.908295 285.711853,337.038422 
	C287.560150,339.256104 289.360596,339.592957 292.144867,339.274963 
	C311.337433,337.082947 330.519897,334.593048 349.778534,333.225616 
	C428.552094,327.632507 507.261414,328.107208 585.802551,337.105347 
	C589.719727,337.554077 591.910889,336.340973 594.073120,333.371185 
	C617.966003,300.554199 621.450684,265.691071 604.443604,228.082306 
M373.639313,368.127838 
	C357.657715,370.428589 341.602112,372.314941 325.716431,375.152557 
	C311.279358,377.731415 297.028442,381.441956 284.347809,389.285950 
	C274.572357,395.332794 271.244812,402.475616 274.581665,413.474762 
	C277.061096,421.647614 280.617950,429.768097 285.161804,436.988861 
	C299.049530,459.058289 317.748474,476.934875 337.300690,493.887756 
	C362.659027,515.874939 389.695282,535.427795 419.301514,551.497803 
	C435.205139,560.130127 449.619568,560.138000 465.396057,551.007385 
	C507.123779,526.857605 544.152344,496.973907 577.166077,462.011688 
	C589.428650,449.025360 600.787720,435.250549 608.005127,418.654388 
	C615.906616,400.485107 612.437744,391.796082 594.269287,383.900085 
	C575.726440,375.841339 555.970947,372.596588 536.132507,370.133301 
	C482.366394,363.457306 428.482239,363.251923 373.639313,368.127838 
z"/>
<path fill="#FFFFFF" opacity="1.000000" stroke="none" 
	d="
M115.468658,855.000000 
	C110.223038,823.082458 110.588776,791.130188 116.438583,759.485474 
	C136.870651,648.958008 197.557465,568.138672 297.186218,516.338928 
	C300.461548,514.636047 302.632935,514.901611 305.610657,517.033081 
	C339.643799,541.394897 374.764832,563.944946 413.371124,580.558899 
	C416.120605,581.742126 418.965851,582.701904 421.721954,583.870789 
	C435.870880,589.871521 449.672272,589.123413 463.825562,583.155823 
	C493.290436,570.732178 520.336304,554.123291 546.792419,536.444885 
	C557.310852,529.416260 567.570435,521.991882 577.795105,514.538208 
	C580.164307,512.811096 581.942383,512.682556 584.506775,513.955383 
	C680.611877,561.656738 741.789612,637.382080 766.771851,741.836670 
	C775.052185,776.458252 776.776428,811.670471 772.878906,847.097656 
	C772.611511,849.528198 771.867920,851.906433 771.672852,854.654480 
	C553.312439,855.000000 334.624878,855.000000 115.468658,855.000000 
M646.981506,710.647583 
	C647.131409,710.697937 647.309265,710.822144 647.423584,710.778748 
	C647.549011,710.731201 647.719543,710.502686 647.692932,710.398254 
	C647.173279,708.357849 646.985046,706.135925 646.028931,704.319641 
	C640.046875,692.956116 629.112244,689.902588 617.675964,688.117126 
	C613.176392,687.414673 608.180847,686.534119 604.001038,687.754700 
	C590.431152,691.717407 580.921753,700.997620 576.274841,714.169006 
	C574.088318,720.366760 573.925720,727.514526 573.982300,734.222290 
	C574.138428,752.723206 582.915466,766.594116 598.428955,776.266357 
	C601.427612,778.135925 604.955383,779.156738 608.239136,780.569031 
	C608.434998,780.205322 608.630798,779.841553 608.826660,779.477783 
	C607.209778,778.173340 605.715637,776.666504 603.955444,775.598267 
	C594.670837,769.964172 587.219421,762.985596 585.495056,751.557861 
	C585.400879,750.933655 585.103699,750.028442 584.643921,749.819214 
	C579.814514,747.622253 580.067871,742.979675 579.234192,738.859375 
	C576.949585,727.567993 580.294861,709.594238 593.556885,703.593872 
	C593.995728,703.395325 594.357239,703.022522 594.748535,702.722717 
	C602.903442,696.475159 611.872803,693.671387 622.132446,696.157837 
	C631.250000,698.367615 639.129395,707.833374 640.174988,717.908997 
	C641.569275,731.344177 638.173279,738.127869 628.155151,742.913208 
	C622.053772,745.827759 615.467163,744.904175 610.507141,740.391235 
	C605.655396,735.976807 603.494019,728.541199 605.490234,723.131958 
	C607.697937,717.149658 612.323792,714.272583 620.047363,714.033264 
	C620.516357,714.018738 620.976868,713.726990 621.904236,713.401978 
	C614.707031,712.127075 608.874634,712.732361 604.914734,719.307068 
	C601.526733,724.932129 601.163513,738.030090 605.022888,741.513123 
	C615.037659,750.551331 624.175598,750.207520 635.434265,742.261230 
	C645.852356,734.908142 648.308472,723.863586 645.967712,711.068909 
	C646.157410,710.885254 646.347168,710.701538 646.981506,710.647583 
z"/>
<path fill="#E0B949" opacity="1.000000" stroke="none" 
	d="
M208.542999,224.144958 
	C208.873871,225.621323 208.839737,227.216263 208.682922,229.613800 
	C207.773926,249.524902 206.611710,268.626892 206.277664,287.743317 
	C205.525040,330.813568 207.568024,373.989716 202.684235,416.896820 
	C200.606506,435.150940 196.330719,453.154846 193.053833,471.272461 
	C194.450073,462.445862 196.092972,453.649719 197.186783,444.785797 
	C198.992218,430.155090 200.513412,415.487946 202.029602,400.823273 
	C205.979034,362.623749 203.127090,324.298767 204.092239,286.044617 
	C204.511185,269.439606 205.284805,252.840866 206.131882,236.251251 
	C206.337158,232.231003 207.471085,228.258163 208.542999,224.144958 
z"/>
<path fill="#3A2C08" opacity="1.000000" stroke="none" 
	d="
M193.104248,471.436340 
	C196.330719,453.154846 200.606506,435.150940 202.684235,416.896820 
	C207.568024,373.989716 205.525040,330.813568 206.277664,287.743317 
	C206.611710,268.626892 207.773926,249.524902 208.744415,230.009277 
	C208.613968,249.043304 208.240082,268.483734 208.007706,287.925812 
	C207.876404,298.911163 208.087418,309.900665 207.950546,320.885864 
	C207.699966,340.995911 207.608902,361.114868 206.898438,381.210571 
	C205.902084,409.392731 202.968048,437.386322 196.747849,464.950165 
	C196.215912,467.307343 194.912857,469.490509 193.641724,471.828796 
	C193.315430,471.903076 193.154678,471.600189 193.104248,471.436340 
z"/>
<path fill="#E0B949" opacity="1.000000" stroke="none" 
	d="
M192.597015,472.047974 
	C187.864334,487.236023 183.348984,502.739410 177.525101,517.734558 
	C173.022980,529.326416 166.881470,540.281555 161.216125,551.751648 
	C161.461624,549.756165 161.591507,547.360840 162.518433,545.329102 
	C168.072052,533.156006 174.337479,521.279297 179.326538,508.885498 
	C183.756973,497.879486 186.820480,486.324615 190.548035,475.032013 
	C190.890305,473.995117 191.672867,473.103546 192.597015,472.047974 
z"/>
<path fill="#E0B949" opacity="1.000000" stroke="none" 
	d="
M160.621063,552.018921 
	C155.855392,560.912964 150.738434,569.863098 145.335373,579.008667 
	C146.469574,575.978699 147.609497,572.590454 149.369659,569.562683 
	C152.820343,563.627258 156.616547,557.892700 160.621063,552.018921 
z"/>
<path fill="#FDFEFE" opacity="1.000000" stroke="none" 
	d="
M604.620850,228.411621 
	C621.450684,265.691071 617.966003,300.554199 594.073120,333.371185 
	C591.910889,336.340973 589.719727,337.554077 585.802551,337.105347 
	C507.261414,328.107208 428.552094,327.632507 349.778534,333.225616 
	C330.519897,334.593048 311.337433,337.082947 292.144867,339.274963 
	C289.360596,339.592957 287.560150,339.256104 285.711853,337.038422 
	C260.600372,306.908295 253.816284,273.056671 268.325470,236.686920 
	C282.740570,200.553024 310.624786,179.887085 349.468689,176.017883 
	C383.155457,172.662384 411.086792,185.109390 433.200867,210.669891 
	C434.064178,211.667709 434.894653,212.693878 436.013214,214.033539 
	C461.512665,182.471207 494.229889,168.418564 534.300903,175.485321 
	C566.100769,181.093399 589.355408,199.487122 604.620850,228.411621 
M404.252167,294.601593 
	C409.611023,279.404785 406.038605,264.239227 394.672058,253.932297 
	C383.701141,243.984131 367.537689,241.605057 354.118774,247.963303 
	C340.715668,254.314056 332.492065,268.118774 333.136047,283.186523 
	C333.849518,299.880768 346.104156,313.937469 362.986694,317.426758 
	C379.813599,320.904541 396.037933,312.167938 404.252167,294.601593 
M519.682129,247.712006 
	C512.923340,243.971313 505.761902,242.377289 498.060120,243.646530 
	C480.288635,246.575272 462.090820,266.064606 460.227081,284.237610 
	C460.076416,285.706696 460.155365,287.246155 460.413055,288.702423 
	C461.802521,296.554382 467.909363,302.293182 475.577820,303.071289 
	C483.454590,303.870483 490.347351,299.804871 493.464478,292.322113 
	C495.684509,286.992920 497.514130,281.457245 502.614716,278.028259 
	C507.730438,282.108002 509.293610,284.665924 514.840332,297.866669 
	C518.446777,306.449493 527.365540,310.679779 536.125854,307.962738 
	C544.439941,305.384094 550.286804,296.253021 547.684570,287.896667 
	C542.709412,271.920593 535.105103,257.447784 519.682129,247.712006 
z"/>
<path fill="#FDC022" opacity="1.000000" stroke="none" 
	d="
M374.095276,368.097290 
	C428.482239,363.251923 482.366394,363.457306 536.132507,370.133301 
	C555.970947,372.596588 575.726440,375.841339 594.269287,383.900085 
	C612.437744,391.796082 615.906616,400.485107 608.005127,418.654388 
	C600.787720,435.250549 589.428650,449.025360 577.166077,462.011688 
	C544.152344,496.973907 507.123779,526.857605 465.396057,551.007385 
	C449.619568,560.138000 435.205139,560.130127 419.301514,551.497803 
	C389.695282,535.427795 362.659027,515.874939 337.300690,493.887756 
	C317.748474,476.934875 299.049530,459.058289 285.161804,436.988861 
	C280.617950,429.768097 277.061096,421.647614 274.581665,413.474762 
	C271.244812,402.475616 274.572357,395.332794 284.347809,389.285950 
	C297.028442,381.441956 311.279358,377.731415 325.716431,375.152557 
	C341.602112,372.314941 357.657715,370.428589 374.095276,368.097290 
M560.275940,459.064667 
	C559.064819,459.614807 557.803467,460.076050 556.649902,460.728058 
	C529.285461,476.195160 500.515320,488.372223 470.516418,497.712616 
	C454.938019,502.563019 439.526825,505.426819 423.041840,500.987823 
	C388.909729,491.796967 356.496674,478.628387 325.545135,461.683563 
	C324.182739,460.937714 322.638916,460.523285 321.179596,459.954468 
	C328.689087,468.001495 336.501526,475.236877 344.670380,482.044525 
	C368.251892,501.696350 393.164917,519.336243 420.333862,533.877502 
	C435.484650,541.986389 449.223511,541.969055 464.181488,533.505188 
	C499.052643,513.773743 530.232117,489.288605 559.361755,462.003052 
	C560.151428,461.263367 560.528259,460.082947 561.657166,459.066986 
	C562.213806,458.674133 562.770386,458.281281 563.327026,457.888428 
	C563.169128,457.690857 563.011230,457.493286 562.853333,457.295715 
	C562.231567,457.855469 561.609863,458.415192 560.275940,459.064667 
z"/>
<path fill="#E92A6B" opacity="1.000000" stroke="none" 
	d="
M645.391357,711.612549 
	C648.308472,723.863586 645.852356,734.908142 635.434265,742.261230 
	C624.175598,750.207520 615.037659,750.551331 605.022888,741.513123 
	C601.163513,738.030090 601.526733,724.932129 604.914734,719.307068 
	C608.874634,712.732361 614.707031,712.127075 621.904236,713.401978 
	C620.976868,713.726990 620.516357,714.018738 620.047363,714.033264 
	C612.323792,714.272583 607.697937,717.149658 605.490234,723.131958 
	C603.494019,728.541199 605.655396,735.976807 610.507141,740.391235 
	C615.467163,744.904175 622.053772,745.827759 628.155151,742.913208 
	C638.173279,738.127869 641.569275,731.344177 640.174988,717.908997 
	C639.129395,707.833374 631.250000,698.367615 622.132446,696.157837 
	C611.872803,693.671387 602.903442,696.475159 594.748535,702.722717 
	C594.357239,703.022522 593.995728,703.395325 593.556885,703.593872 
	C580.294861,709.594238 576.949585,727.567993 579.234192,738.859375 
	C580.067871,742.979675 579.814514,747.622253 584.643921,749.819214 
	C585.103699,750.028442 585.400879,750.933655 585.495056,751.557861 
	C587.219421,762.985596 594.670837,769.964172 603.955444,775.598267 
	C605.715637,776.666504 607.209778,778.173340 608.826660,779.477783 
	C608.630798,779.841553 608.434998,780.205322 608.239136,780.569031 
	C604.955383,779.156738 601.427612,778.135925 598.428955,776.266357 
	C582.915466,766.594116 574.138428,752.723206 573.982300,734.222290 
	C573.925720,727.514526 574.088318,720.366760 576.274841,714.169006 
	C580.921753,700.997620 590.431152,691.717407 604.001038,687.754700 
	C608.180847,686.534119 613.176392,687.414673 617.675964,688.117126 
	C629.112244,689.902588 640.046875,692.956116 646.028931,704.319641 
	C646.985046,706.135925 647.173279,708.357849 647.692932,710.398254 
	C647.719543,710.502686 647.549011,710.731201 647.423584,710.778748 
	C647.309265,710.822144 647.131409,710.697937 646.626709,710.273132 
	C645.611206,709.723633 644.950439,709.548584 644.289673,709.373535 
	C644.656921,710.119873 645.024109,710.866211 645.391357,711.612549 
z"/>
<path fill="#222325" opacity="1.000000" stroke="none" 
	d="
M404.128784,294.970154 
	C396.037933,312.167938 379.813599,320.904541 362.986694,317.426758 
	C346.104156,313.937469 333.849518,299.880768 333.136047,283.186523 
	C332.492065,268.118774 340.715668,254.314056 354.118774,247.963303 
	C367.537689,241.605057 383.701141,243.984131 394.672058,253.932297 
	C406.038605,264.239227 409.611023,279.404785 404.128784,294.970154 
z"/>
<path fill="#222325" opacity="1.000000" stroke="none" 
	d="
M520.011475,247.880035 
	C535.105103,257.447784 542.709412,271.920593 547.684570,287.896667 
	C550.286804,296.253021 544.439941,305.384094 536.125854,307.962738 
	C527.365540,310.679779 518.446777,306.449493 514.840332,297.866669 
	C509.293610,284.665924 507.730438,282.108002 502.614716,278.028259 
	C497.514130,281.457245 495.684509,286.992920 493.464478,292.322113 
	C490.347351,299.804871 483.454590,303.870483 475.577820,303.071289 
	C467.909363,302.293182 461.802521,296.554382 460.413055,288.702423 
	C460.155365,287.246155 460.076416,285.706696 460.227081,284.237610 
	C462.090820,266.064606 480.288635,246.575272 498.060120,243.646530 
	C505.761902,242.377289 512.923340,243.971313 520.011475,247.880035 
z"/>
<path fill="#F84304" opacity="1.000000" stroke="none" 
	d="
M561.097595,459.108032 
	C560.528259,460.082947 560.151428,461.263367 559.361755,462.003052 
	C530.232117,489.288605 499.052643,513.773743 464.181488,533.505188 
	C449.223511,541.969055 435.484650,541.986389 420.333862,533.877502 
	C393.164917,519.336243 368.251892,501.696350 344.670380,482.044525 
	C336.501526,475.236877 328.689087,468.001495 321.179596,459.954468 
	C322.638916,460.523285 324.182739,460.937714 325.545135,461.683563 
	C356.496674,478.628387 388.909729,491.796967 423.041840,500.987823 
	C439.526825,505.426819 454.938019,502.563019 470.516418,497.712616 
	C500.515320,488.372223 529.285461,476.195160 556.649902,460.728058 
	C557.803467,460.076050 559.064819,459.614807 560.658630,459.053711 
	C561.041321,459.042755 561.097595,459.108032 561.097595,459.108032 
z"/>
<path fill="#F84304" opacity="1.000000" stroke="none" 
	d="
M561.014771,459.008850 
	C561.609863,458.415192 562.231567,457.855469 562.853333,457.295715 
	C563.011230,457.493286 563.169128,457.690857 563.327026,457.888428 
	C562.770386,458.281281 562.213806,458.674133 561.377380,459.087524 
	C561.097595,459.108032 561.041321,459.042755 561.014771,459.008850 
z"/>
<path fill="#FFFFFF" opacity="1.000000" stroke="none" 
	d="
M645.679565,711.340698 
	C645.024109,710.866211 644.656921,710.119873 644.289673,709.373535 
	C644.950439,709.548584 645.611206,709.723633 646.404419,710.208252 
	C646.347168,710.701538 646.157410,710.885254 645.679565,711.340698 
z"/>
</svg>